<?xml version="1.0" encoding="utf-8"?>
<!-- Generator: Adobe Illustrator 27.5.0, SVG Export Plug-In . SVG Version: 6.00 Build 0)  -->
<svg version="1.1" xmlns="http://www.w3.org/2000/svg" xmlns:xlink="http://www.w3.org/1999/xlink" x="0px" y="0px"
	 viewBox="0 0 750 500" style="enable-background:new 0 0 750 500;" xml:space="preserve">
<g id="BACKGROUND">
	<linearGradient id="SVGID_1_" gradientUnits="userSpaceOnUse" x1="375" y1="-250.5445" x2="375" y2="664.7855">
		<stop  offset="0" style="stop-color:#FFE9BE"/>
		<stop  offset="1" style="stop-color:#FFFFFF"/>
	</linearGradient>
	<rect style="fill:url(#SVGID_1_);" width="750" height="500"/>
</g>
<g id="OBJECTS">
	<g>
		<g>
			<g>
				
					<linearGradient id="SVGID_00000071543546453855491590000007838727293614241678_" gradientUnits="userSpaceOnUse" x1="118.4448" y1="449.1796" x2="189.2837" y2="316.7921">
					<stop  offset="0" style="stop-color:#FF96FF"/>
					<stop  offset="1" style="stop-color:#FFCB5D"/>
				</linearGradient>
				<path style="fill:url(#SVGID_00000071543546453855491590000007838727293614241678_);" d="M142.046,424.419
					c0,0-9.29-7.742-10.839-21.29s13.161-22.452,13.161-22.452s-2.71-13.161,5.419-24.387c8.129-11.226,15.871-12,15.871-12
					s4.645,14.323,1.161,25.935c-3.484,11.613-10.839,13.548-10.839,13.548s6.194,7.742,4.258,20.129
					C158.304,416.29,142.046,424.419,142.046,424.419z"/>
				<path style="fill:none;stroke:#3B365B;stroke-width:0.5549;stroke-miterlimit:10;" d="M138.949,477.839
					c0,0-2.323-68.903,19.355-116.903"/>
			</g>
			<g>
				
					<linearGradient id="SVGID_00000019650575026650289790000006545600170219296179_" gradientUnits="userSpaceOnUse" x1="90.8593" y1="391.4437" x2="161.6967" y2="259.0591" gradientTransform="matrix(-0.9928 -0.12 -0.12 0.9928 273.4011 16.0826)">
					<stop  offset="0" style="stop-color:#FF96FF"/>
					<stop  offset="1" style="stop-color:#FFCB5D"/>
				</linearGradient>
				<path style="fill:url(#SVGID_00000019650575026650289790000006545600170219296179_);" d="M115.764,366.391
					c0,0,10.152-6.571,13.315-19.836c3.163-13.265-10.373-23.868-10.373-23.868s4.269-12.741-2.454-24.861
					c-6.724-12.12-14.317-13.817-14.317-13.817s-6.33,13.662-4.264,25.609c2.065,11.947,9.135,14.751,9.135,14.751
					s-7.078,6.943-6.642,19.473C100.599,356.37,115.764,366.391,115.764,366.391z"/>
				<path style="fill:none;stroke:#3B365B;stroke-width:0.5549;stroke-miterlimit:10;" d="M112.43,419.796
					c0,0,10.572-68.127-5.19-118.381"/>
			</g>
			<g>
				<defs>
					
						<rect id="SVGID_00000071528920877443296330000015728534349805394868_" x="19.567" y="311.114" width="165.834" height="181.3"/>
				</defs>
				<clipPath id="SVGID_00000013908040514443724760000005040179608574324119_">
					<use xlink:href="#SVGID_00000071528920877443296330000015728534349805394868_"  style="overflow:visible;"/>
				</clipPath>
				<g style="clip-path:url(#SVGID_00000013908040514443724760000005040179608574324119_);">
					<g>
						
							<linearGradient id="SVGID_00000091006930017113529390000012091284011038896512_" gradientUnits="userSpaceOnUse" x1="38.3672" y1="413.7322" x2="127.7287" y2="510.827">
							<stop  offset="0" style="stop-color:#4CC3A3"/>
							<stop  offset="1" style="stop-color:#00A0B7"/>
						</linearGradient>
						<path style="fill:url(#SVGID_00000091006930017113529390000012091284011038896512_);" d="M123.535,485.54
							c0,0-36.947-63.584-76.473-67.021c-18.044,0.859-24.059,12.029-4.296,25.777c19.763,13.748,46.399,41.244,56.71,58.429
							C109.787,519.91,132.987,506.162,123.535,485.54z"/>
						<path style="fill:#3B365B;" d="M106.877,509.51c10.91,4.585,24.213-7.487,16.658-23.97c0,0-12.433-21.394-30.589-40.033
							C98.309,458.157,106.203,481.376,106.877,509.51z"/>
						<path style="fill:none;stroke:#3B365B;stroke-width:0.5549;stroke-miterlimit:10;" d="M31.31,424.247
							c0,0,53.846,10.884,82.487,72.176"/>
					</g>
					<g>
						
							<linearGradient id="SVGID_00000062191476411806962860000008857435217265215107_" gradientUnits="userSpaceOnUse" x1="1237.9808" y1="136.1236" x2="1318.9921" y2="224.1456" gradientTransform="matrix(-0.8601 0.5102 0.5102 0.8601 1164.3037 -339.5863)">
							<stop  offset="0" style="stop-color:#4092B2"/>
							<stop  offset="1" style="stop-color:#006A7A"/>
						</linearGradient>
						<path style="fill:url(#SVGID_00000062191476411806962860000008857435217265215107_);" d="M135.77,504.494
							c0,0-0.598-66.668,28.632-87.628c14.467-7.676,24.323-1.747,15.272,18.113c-9.051,19.86-17.104,53.619-17.196,71.788
							C162.386,524.935,137.938,524.945,135.77,504.494z"/>
						<path style="fill:#3B365B;" d="M159.845,515.48c-6.387,8.622-22.343,5.36-24.075-10.986c0,0-0.2-22.432,5.336-45.363
							C142.775,471.475,147.358,493.231,159.845,515.48z"/>
						<path style="fill:none;stroke:#3B365B;stroke-width:0.5031;stroke-miterlimit:10;" d="M179.334,414.047
							c0,0-36.952,33.391-30.937,94.43"/>
					</g>
					<g>
						
							<linearGradient id="SVGID_00000146497010978761396330000008348938308751327144_" gradientUnits="userSpaceOnUse" x1="45.0078" y1="313.9736" x2="148.9763" y2="543.3912">
							<stop  offset="0" style="stop-color:#4CC3A3"/>
							<stop  offset="1" style="stop-color:#00A0B7"/>
						</linearGradient>
						<path style="fill:url(#SVGID_00000146497010978761396330000008348938308751327144_);" d="M121.244,501.866
							c0,0-33.511-100.531-83.347-140.056c-21.481-15.466-0.859-40.385,17.185-35.229c18.044,5.156,71.317,48.118,88.502,176.145
							L121.244,501.866z"/>
						<path style="fill:none;stroke:#3B365B;stroke-width:0.5549;stroke-miterlimit:10;" d="M34.46,333.454
							c0,0,74.754,37.807,99.672,170.13"/>
					</g>
				</g>
			</g>
		</g>
		<g>
			<g>
				
					<linearGradient id="SVGID_00000165938730131809972310000012890337910857531030_" gradientUnits="userSpaceOnUse" x1="523.9012" y1="449.1796" x2="594.7402" y2="316.7921" gradientTransform="matrix(-1 0 0 1 1155.4565 0)">
					<stop  offset="0" style="stop-color:#FF96FF"/>
					<stop  offset="1" style="stop-color:#FFCB5D"/>
				</linearGradient>
				<path style="fill:url(#SVGID_00000165938730131809972310000012890337910857531030_);" d="M607.954,424.419
					c0,0,9.29-7.742,10.839-21.29s-13.161-22.452-13.161-22.452s2.71-13.161-5.419-24.387c-8.129-11.226-15.871-12-15.871-12
					s-4.645,14.323-1.161,25.935c3.484,11.613,10.839,13.548,10.839,13.548s-6.194,7.742-4.258,20.129
					C591.696,416.29,607.954,424.419,607.954,424.419z"/>
				<path style="fill:none;stroke:#3B365B;stroke-width:0.5549;stroke-miterlimit:10;" d="M611.051,477.839
					c0,0,2.323-68.903-19.355-116.903"/>
			</g>
			<g>
				
					<linearGradient id="SVGID_00000054240465952211700690000012502623627897670289_" gradientUnits="userSpaceOnUse" x1="-311.6571" y1="342.7914" x2="-240.8197" y2="210.4068" gradientTransform="matrix(0.9928 -0.12 0.12 0.9928 882.0554 16.0826)">
					<stop  offset="0" style="stop-color:#FF96FF"/>
					<stop  offset="1" style="stop-color:#FFCB5D"/>
				</linearGradient>
				<path style="fill:url(#SVGID_00000054240465952211700690000012502623627897670289_);" d="M634.236,366.391
					c0,0-10.152-6.571-13.315-19.836c-3.163-13.265,10.373-23.868,10.373-23.868s-4.269-12.741,2.454-24.861
					s14.317-13.817,14.317-13.817s6.33,13.662,4.265,25.609c-2.065,11.947-9.135,14.751-9.135,14.751s7.078,6.943,6.642,19.473
					C649.401,356.37,634.236,366.391,634.236,366.391z"/>
				<path style="fill:none;stroke:#3B365B;stroke-width:0.5549;stroke-miterlimit:10;" d="M637.57,419.796
					c0,0-10.572-68.127,5.19-118.381"/>
			</g>
			<g>
				<defs>
					
						<rect id="SVGID_00000139288349199722295870000002689079890346637440_" x="564.599" y="311.114" transform="matrix(-1 -1.224647e-16 1.224647e-16 -1 1295.0322 803.5277)" width="165.834" height="181.3"/>
				</defs>
				<clipPath id="SVGID_00000100359027892718932610000010138132876402074271_">
					<use xlink:href="#SVGID_00000139288349199722295870000002689079890346637440_"  style="overflow:visible;"/>
				</clipPath>
				<g style="clip-path:url(#SVGID_00000100359027892718932610000010138132876402074271_);">
					<g>
						
							<linearGradient id="SVGID_00000044152402851522257530000004282991679823939752_" gradientUnits="userSpaceOnUse" x1="443.8237" y1="413.7322" x2="533.1852" y2="510.827" gradientTransform="matrix(-1 0 0 1 1155.4565 0)">
							<stop  offset="0" style="stop-color:#4CC3A3"/>
							<stop  offset="1" style="stop-color:#00A0B7"/>
						</linearGradient>
						<path style="fill:url(#SVGID_00000044152402851522257530000004282991679823939752_);" d="M626.465,485.54
							c0,0,36.947-63.584,76.473-67.021c18.044,0.859,24.059,12.029,4.296,25.777c-19.763,13.748-46.399,41.244-56.71,58.429
							C640.213,519.91,617.013,506.162,626.465,485.54z"/>
						<path style="fill:#3B365B;" d="M643.123,509.51c-10.91,4.585-24.213-7.487-16.658-23.97c0,0,12.433-21.394,30.589-40.033
							C651.691,458.157,643.797,481.376,643.123,509.51z"/>
						<path style="fill:none;stroke:#3B365B;stroke-width:0.5549;stroke-miterlimit:10;" d="M718.69,424.247
							c0,0-53.846,10.884-82.487,72.176"/>
					</g>
					<g>
						
							<linearGradient id="SVGID_00000016772147997545498290000001077071247236623794_" gradientUnits="userSpaceOnUse" x1="889.2742" y1="342.9718" x2="970.2855" y2="430.9938" gradientTransform="matrix(0.8601 0.5102 -0.5102 0.8601 -8.8472 -339.5863)">
							<stop  offset="0" style="stop-color:#4092B2"/>
							<stop  offset="1" style="stop-color:#006A7A"/>
						</linearGradient>
						<path style="fill:url(#SVGID_00000016772147997545498290000001077071247236623794_);" d="M614.23,504.494
							c0,0,0.598-66.668-28.632-87.628c-14.467-7.676-24.323-1.747-15.272,18.113c9.051,19.86,17.104,53.619,17.196,71.788
							C587.614,524.935,612.063,524.945,614.23,504.494z"/>
						<path style="fill:#3B365B;" d="M590.155,515.48c6.387,8.622,22.343,5.36,24.075-10.986c0,0,0.2-22.432-5.336-45.363
							C607.225,471.475,602.642,493.231,590.155,515.48z"/>
						<path style="fill:none;stroke:#3B365B;stroke-width:0.5031;stroke-miterlimit:10;" d="M570.666,414.047
							c0,0,36.952,33.391,30.937,94.43"/>
					</g>
					<g>
						
							<linearGradient id="SVGID_00000075141594564476611410000003327817689562983609_" gradientUnits="userSpaceOnUse" x1="450.4643" y1="313.9736" x2="554.4328" y2="543.3912" gradientTransform="matrix(-1 0 0 1 1155.4565 0)">
							<stop  offset="0" style="stop-color:#4CC3A3"/>
							<stop  offset="1" style="stop-color:#00A0B7"/>
						</linearGradient>
						<path style="fill:url(#SVGID_00000075141594564476611410000003327817689562983609_);" d="M628.756,501.866
							c0,0,33.51-100.531,83.347-140.056c21.481-15.466,0.859-40.385-17.185-35.229c-18.044,5.156-71.317,48.118-88.502,176.145
							L628.756,501.866z"/>
						<path style="fill:none;stroke:#3B365B;stroke-width:0.5549;stroke-miterlimit:10;" d="M715.54,333.454
							c0,0-74.754,37.807-99.672,170.13"/>
					</g>
				</g>
			</g>
		</g>
	</g>
	<g>
		<defs>
			<rect id="SVGID_00000085231348416964821450000002645955285859637690_" y="380.032" width="750" height="119.968"/>
		</defs>
		<clipPath id="SVGID_00000023988089610092783050000018254432819528843660_">
			<use xlink:href="#SVGID_00000085231348416964821450000002645955285859637690_"  style="overflow:visible;"/>
		</clipPath>
		<g style="clip-path:url(#SVGID_00000023988089610092783050000018254432819528843660_);">
			<g>
				
					<linearGradient id="SVGID_00000108294601658000402610000009859724176006813353_" gradientUnits="userSpaceOnUse" x1="456.9508" y1="399.0356" x2="551.8907" y2="555.4709" gradientTransform="matrix(-1 0 0 1 1044.4856 0)">
					<stop  offset="0" style="stop-color:#4CC3A3"/>
					<stop  offset="1" style="stop-color:#00A0B7"/>
				</linearGradient>
				<path style="fill:url(#SVGID_00000108294601658000402610000009859724176006813353_);" d="M452.263,393.776
					c68.275-3.637,77.2,44.736,77.2,44.736c69.35-2.836,75.011,34.971,75.011,34.971c56.607,2.578,57.08,27.801,56.697,32.37
					H452.263V393.776z"/>
				
					<linearGradient id="SVGID_00000167384738761978644630000017071338787689310386_" gradientUnits="userSpaceOnUse" x1="722.4885" y1="399.0356" x2="817.4284" y2="555.4709" gradientTransform="matrix(1 0 0 1 -560.0233 0)">
					<stop  offset="0" style="stop-color:#4CC3A3"/>
					<stop  offset="1" style="stop-color:#00A0B7"/>
				</linearGradient>
				<path style="fill:url(#SVGID_00000167384738761978644630000017071338787689310386_);" d="M297.737,393.776
					c-68.275-3.637-77.2,44.736-77.2,44.736c-69.35-2.836-75.011,34.971-75.011,34.971c-56.607,2.578-57.08,27.801-56.697,32.37
					h208.908V393.776z"/>
			</g>
			
				<linearGradient id="SVGID_00000168798477355088321870000002586153192176891561_" gradientUnits="userSpaceOnUse" x1="158.9313" y1="598.1214" x2="78.7846" y2="402.3348">
				<stop  offset="0" style="stop-color:#FF96FF"/>
				<stop  offset="1" style="stop-color:#FFCB5D"/>
			</linearGradient>
			<path style="fill:url(#SVGID_00000168798477355088321870000002586153192176891561_);" d="M184.575,470.406
				c-50.378-8.015-64.117,22.899-100.756,20.609C52.199,489.039,20.58,475.981,0,490.84v10.98h239.001
				C236.865,495.932,226.832,477.129,184.575,470.406z"/>
			
				<linearGradient id="SVGID_00000062897487093999859700000015777713325218431647_" gradientUnits="userSpaceOnUse" x1="576.9649" y1="598.1214" x2="496.8182" y2="402.3348" gradientTransform="matrix(-1 0 0 1 1168.0336 0)">
				<stop  offset="0" style="stop-color:#FF96FF"/>
				<stop  offset="1" style="stop-color:#FFCB5D"/>
			</linearGradient>
			<path style="fill:url(#SVGID_00000062897487093999859700000015777713325218431647_);" d="M565.425,470.406
				c50.378-8.015,64.117,22.899,100.755,20.609c31.621-1.976,63.24-15.034,83.82-0.174v10.98H510.999
				C513.135,495.932,523.168,477.129,565.425,470.406z"/>
		</g>
	</g>
	<g>
		<g>
			<defs>
				
					<rect id="SVGID_00000023258266481720749410000012564627406641616022_" x="688.129" y="185.71" width="61.871" height="128.581"/>
			</defs>
			<clipPath id="SVGID_00000008144251531133928690000008028524819764952747_">
				<use xlink:href="#SVGID_00000023258266481720749410000012564627406641616022_"  style="overflow:visible;"/>
			</clipPath>
			<g style="clip-path:url(#SVGID_00000008144251531133928690000008028524819764952747_);">
				
					<linearGradient id="SVGID_00000179642737608939410800000008636447051797862025_" gradientUnits="userSpaceOnUse" x1="708.4361" y1="264.4885" x2="781.2101" y2="264.4885">
					<stop  offset="0" style="stop-color:#FF96FF"/>
					<stop  offset="1" style="stop-color:#FFCB5D"/>
				</linearGradient>
				<path style="fill:url(#SVGID_00000179642737608939410800000008636447051797862025_);" d="M708.808,228.398
					c-0.055,0.13-0.108,0.26-0.161,0.391c-0.44,1.08-0.178,2.321,0.65,3.142l68.377,67.804c0.828,0.821,2.071,1.073,3.147,0.624
					c0.13-0.054,0.26-0.109,0.389-0.165L708.808,228.398z"/>
				
					<linearGradient id="SVGID_00000063615038740784393020000018095207010751481758_" gradientUnits="userSpaceOnUse" x1="711.8804" y1="259.292" x2="788.0714" y2="259.292">
					<stop  offset="0" style="stop-color:#FF96FF"/>
					<stop  offset="1" style="stop-color:#FFCB5D"/>
				</linearGradient>
				<path style="fill:url(#SVGID_00000063615038740784393020000018095207010751481758_);" d="M712.29,221.507l-0.011,0.019
					c-0.664,1.114-0.484,2.537,0.437,3.45l71.883,71.281c0.921,0.913,2.345,1.082,3.454,0.408l0.019-0.012L712.29,221.507z"/>
				
					<linearGradient id="SVGID_00000146490103495814816710000018178024723786645407_" gradientUnits="userSpaceOnUse" x1="715.2104" y1="254.5386" x2="794.1633" y2="254.5386">
					<stop  offset="0" style="stop-color:#FF96FF"/>
					<stop  offset="1" style="stop-color:#FFCB5D"/>
				</linearGradient>
				<path style="fill:url(#SVGID_00000146490103495814816710000018178024723786645407_);" d="M716.542,215.38
					c-0.453,0.568-0.901,1.141-1.332,1.727l77.237,76.59c0.583-0.436,1.151-0.888,1.716-1.346L716.542,215.38z"/>
				
					<linearGradient id="SVGID_00000056423010514066147680000016561714651441335697_" gradientUnits="userSpaceOnUse" x1="704.6453" y1="274.7901" x2="764.5746" y2="274.7901">
					<stop  offset="0" style="stop-color:#FF96FF"/>
					<stop  offset="1" style="stop-color:#FFCB5D"/>
				</linearGradient>
				<path style="fill:url(#SVGID_00000056423010514066147680000016561714651441335697_);" d="M704.757,245.068
					c-0.044,0.534-0.08,1.07-0.108,1.608c-0.043,0.814,0.277,1.607,0.856,2.181l55.274,54.811c0.579,0.574,1.374,0.888,2.188,0.838
					c0.538-0.033,1.074-0.073,1.607-0.121L704.757,245.068z"/>
				
					<linearGradient id="SVGID_00000018226935478070165090000010208760537532175011_" gradientUnits="userSpaceOnUse" x1="708.0939" y1="285.1573" x2="740.552" y2="285.1573">
					<stop  offset="0" style="stop-color:#FF96FF"/>
					<stop  offset="1" style="stop-color:#FFCB5D"/>
				</linearGradient>
				<path style="fill:url(#SVGID_00000018226935478070165090000010208760537532175011_);" d="M708.094,269.064
					c0.645,1.708,1.378,3.372,2.185,4.994c0.145,0.292,0.339,0.557,0.571,0.786l23.899,23.699c0.232,0.23,0.498,0.421,0.791,0.564
					c1.628,0.793,3.298,1.512,5.012,2.143L708.094,269.064z"/>
				
					<linearGradient id="SVGID_00000049181822907908808320000017093147657858109075_" gradientUnits="userSpaceOnUse" x1="705.9228" y1="269.6651" x2="773.4582" y2="269.6651">
					<stop  offset="0" style="stop-color:#FF96FF"/>
					<stop  offset="1" style="stop-color:#FFCB5D"/>
				</linearGradient>
				<path style="fill:url(#SVGID_00000049181822907908808320000017093147657858109075_);" d="M706.217,236.172
					c-0.076,0.305-0.15,0.611-0.222,0.918c-0.226,0.973,0.09,1.999,0.799,2.702l63.04,62.512c0.709,0.703,1.737,1.01,2.709,0.776
					c0.306-0.074,0.611-0.151,0.916-0.23L706.217,236.172z"/>
				
					<linearGradient id="SVGID_00000106827937506494968740000016969113392250582967_" gradientUnits="userSpaceOnUse" x1="704.8683" y1="279.942" x2="754.1205" y2="279.942">
					<stop  offset="0" style="stop-color:#FF96FF"/>
					<stop  offset="1" style="stop-color:#FFCB5D"/>
				</linearGradient>
				<path style="fill:url(#SVGID_00000106827937506494968740000016969113392250582967_);" d="M704.868,255.522
					c0.094,0.882,0.216,1.754,0.354,2.622c0.097,0.607,0.39,1.165,0.827,1.597l43.843,43.476c0.436,0.432,0.997,0.721,1.604,0.813
					c0.868,0.131,1.742,0.246,2.625,0.332L704.868,255.522z"/>
				
					<linearGradient id="SVGID_00000080194816448159045550000004855963025687361973_" gradientUnits="userSpaceOnUse" x1="725.4137" y1="244.309" x2="804.2406" y2="244.309">
					<stop  offset="0" style="stop-color:#FF96FF"/>
					<stop  offset="1" style="stop-color:#FFCB5D"/>
				</linearGradient>
				<path style="fill:url(#SVGID_00000080194816448159045550000004855963025687361973_);" d="M727.151,205.213
					c-0.588,0.43-1.167,0.873-1.737,1.325l77.517,76.868c0.448-0.574,0.885-1.156,1.31-1.748L727.151,205.213z"/>
				
					<linearGradient id="SVGID_00000120558575826604505110000016592640372273672619_" gradientUnits="userSpaceOnUse" x1="765.9651" y1="218.8949" x2="814.0953" y2="218.8949">
					<stop  offset="0" style="stop-color:#FF96FF"/>
					<stop  offset="1" style="stop-color:#FFCB5D"/>
				</linearGradient>
				<path style="fill:url(#SVGID_00000120558575826604505110000016592640372273672619_);" d="M770.24,196.222
					c-0.426-0.422-0.97-0.709-1.561-0.808c-0.897-0.15-1.802-0.277-2.713-0.383l48.13,47.727c-0.114-0.91-0.249-1.814-0.406-2.71
					c-0.104-0.591-0.395-1.132-0.821-1.554L770.24,196.222z"/>
				
					<linearGradient id="SVGID_00000056387877553990322870000009244319773037315993_" gradientUnits="userSpaceOnUse" x1="779.9734" y1="213.6796" x2="810.4305" y2="213.6796">
					<stop  offset="0" style="stop-color:#FF96FF"/>
					<stop  offset="1" style="stop-color:#FFCB5D"/>
				</linearGradient>
				<path style="fill:url(#SVGID_00000056387877553990322870000009244319773037315993_);" d="M786.12,201.626
					c-0.208-0.206-0.445-0.383-0.703-0.521c-1.759-0.939-3.577-1.779-5.443-2.526l30.457,30.202
					c-0.763-1.86-1.619-3.671-2.572-5.422c-0.14-0.257-0.319-0.492-0.527-0.698L786.12,201.626z"/>
				
					<linearGradient id="SVGID_00000123432335500334289400000000505097431620022696_" gradientUnits="userSpaceOnUse" x1="755.3229" y1="224.058" x2="814.4839" y2="224.058">
					<stop  offset="0" style="stop-color:#FF96FF"/>
					<stop  offset="1" style="stop-color:#FFCB5D"/>
				</linearGradient>
				<path style="fill:url(#SVGID_00000123432335500334289400000000505097431620022696_);" d="M759.141,195.56
					c-0.569-0.564-1.346-0.877-2.146-0.84c-0.56,0.025-1.117,0.06-1.672,0.102l59.071,58.577c0.037-0.556,0.066-1.113,0.088-1.673
					c0.03-0.801-0.29-1.575-0.859-2.139L759.141,195.56z"/>
				
					<linearGradient id="SVGID_00000094609375158797945200000017974887489518745019_" gradientUnits="userSpaceOnUse" x1="738.5012" y1="234.3481" x2="810.9029" y2="234.3481">
					<stop  offset="0" style="stop-color:#FF96FF"/>
					<stop  offset="1" style="stop-color:#FFCB5D"/>
				</linearGradient>
				<path style="fill:url(#SVGID_00000094609375158797945200000017974887489518745019_);" d="M742.044,199.294
					c-0.815-0.808-2.038-1.08-3.101-0.647c-0.148,0.06-0.294,0.12-0.442,0.182l72.028,71.425c0.06-0.148,0.119-0.296,0.178-0.444
					c0.423-1.066,0.141-2.287-0.673-3.095L742.044,199.294z"/>
				
					<linearGradient id="SVGID_00000146466940119235490040000013329734129862848428_" gradientUnits="userSpaceOnUse" x1="731.5703" y1="239.5462" x2="807.5084" y2="239.5462">
					<stop  offset="0" style="stop-color:#FF96FF"/>
					<stop  offset="1" style="stop-color:#FFCB5D"/>
				</linearGradient>
				<path style="fill:url(#SVGID_00000146466940119235490040000013329734129862848428_);" d="M735.047,202.699
					c-0.915-0.907-2.326-1.082-3.434-0.426l-0.044,0.025l75.547,74.914l0,0c0.661-1.139,0.47-2.581-0.465-3.508L735.047,202.699z"/>
				
					<linearGradient id="SVGID_00000080913290556244775150000013043643877812935060_" gradientUnits="userSpaceOnUse" x1="719.966" y1="249.4236" x2="799.5481" y2="249.4236">
					<stop  offset="0" style="stop-color:#FF96FF"/>
					<stop  offset="1" style="stop-color:#FFCB5D"/>
				</linearGradient>
				<path style="fill:url(#SVGID_00000080913290556244775150000013043643877812935060_);" d="M799.548,287.348L721.5,209.953
					c-0.521,0.5-1.033,1.007-1.534,1.526l78.069,77.416C798.55,288.389,799.053,287.873,799.548,287.348z"/>
				
					<linearGradient id="SVGID_00000171715559924042983430000009886148901868059522_" gradientUnits="userSpaceOnUse" x1="746.338" y1="229.1765" x2="813.3204" y2="229.1765">
					<stop  offset="0" style="stop-color:#FF96FF"/>
					<stop  offset="1" style="stop-color:#FFCB5D"/>
				</linearGradient>
				<path style="fill:url(#SVGID_00000171715559924042983430000009886148901868059522_);" d="M749.972,196.812
					c-0.7-0.695-1.712-1.004-2.674-0.784c-0.321,0.073-0.641,0.15-0.96,0.228l66.698,66.139c0.076-0.319,0.149-0.639,0.22-0.961
					c0.212-0.963-0.106-1.973-0.807-2.668L749.972,196.812z"/>
			</g>
		</g>
		<g>
			<defs>
				
					<rect id="SVGID_00000072254949750751936350000012440339878018923908_" y="185.71" transform="matrix(-1 -1.224647e-16 1.224647e-16 -1 61.871 500)" width="61.871" height="128.581"/>
			</defs>
			<clipPath id="SVGID_00000054981019968632571060000002818530959980650136_">
				<use xlink:href="#SVGID_00000072254949750751936350000012440339878018923908_"  style="overflow:visible;"/>
			</clipPath>
			<g style="clip-path:url(#SVGID_00000054981019968632571060000002818530959980650136_);">
				
					<linearGradient id="SVGID_00000008847849364030655090000001949693695176689582_" gradientUnits="userSpaceOnUse" x1="35.5329" y1="264.4885" x2="108.3069" y2="264.4885" gradientTransform="matrix(-1 0 0 1 77.0968 0)">
					<stop  offset="0" style="stop-color:#FF96FF"/>
					<stop  offset="1" style="stop-color:#FFCB5D"/>
				</linearGradient>
				<path style="fill:url(#SVGID_00000008847849364030655090000001949693695176689582_);" d="M41.192,228.398
					c0.055,0.13,0.108,0.26,0.161,0.391c0.44,1.08,0.178,2.321-0.65,3.142l-68.377,67.804c-0.828,0.821-2.071,1.073-3.147,0.624
					c-0.13-0.054-0.26-0.109-0.389-0.165L41.192,228.398z"/>
				
					<linearGradient id="SVGID_00000131351527794733354450000002156984987065746839_" gradientUnits="userSpaceOnUse" x1="38.9772" y1="259.292" x2="115.1682" y2="259.292" gradientTransform="matrix(-1 0 0 1 77.0968 0)">
					<stop  offset="0" style="stop-color:#FF96FF"/>
					<stop  offset="1" style="stop-color:#FFCB5D"/>
				</linearGradient>
				<path style="fill:url(#SVGID_00000131351527794733354450000002156984987065746839_);" d="M37.71,221.507l0.011,0.019
					c0.664,1.114,0.484,2.537-0.437,3.45l-71.883,71.281c-0.921,0.913-2.345,1.082-3.454,0.408l-0.019-0.012L37.71,221.507z"/>
				
					<linearGradient id="SVGID_00000111192260940396137540000003223206812284489109_" gradientUnits="userSpaceOnUse" x1="42.3072" y1="254.5386" x2="121.2601" y2="254.5386" gradientTransform="matrix(-1 0 0 1 77.0968 0)">
					<stop  offset="0" style="stop-color:#FF96FF"/>
					<stop  offset="1" style="stop-color:#FFCB5D"/>
				</linearGradient>
				<path style="fill:url(#SVGID_00000111192260940396137540000003223206812284489109_);" d="M33.458,215.38
					c0.453,0.568,0.901,1.141,1.332,1.727l-77.237,76.59c-0.583-0.436-1.151-0.888-1.716-1.346L33.458,215.38z"/>
				
					<linearGradient id="SVGID_00000128470727550787728520000009998275334938785465_" gradientUnits="userSpaceOnUse" x1="31.7421" y1="274.7901" x2="91.6714" y2="274.7901" gradientTransform="matrix(-1 0 0 1 77.0968 0)">
					<stop  offset="0" style="stop-color:#FF96FF"/>
					<stop  offset="1" style="stop-color:#FFCB5D"/>
				</linearGradient>
				<path style="fill:url(#SVGID_00000128470727550787728520000009998275334938785465_);" d="M45.243,245.068
					c0.044,0.534,0.08,1.07,0.108,1.608c0.043,0.814-0.278,1.607-0.856,2.181l-55.274,54.811c-0.579,0.574-1.374,0.888-2.188,0.838
					c-0.538-0.033-1.074-0.073-1.607-0.121L45.243,245.068z"/>
				
					<linearGradient id="SVGID_00000116204191626440057350000005282837174399378082_" gradientUnits="userSpaceOnUse" x1="35.1907" y1="285.1573" x2="67.6488" y2="285.1573" gradientTransform="matrix(-1 0 0 1 77.0968 0)">
					<stop  offset="0" style="stop-color:#FF96FF"/>
					<stop  offset="1" style="stop-color:#FFCB5D"/>
				</linearGradient>
				<path style="fill:url(#SVGID_00000116204191626440057350000005282837174399378082_);" d="M41.906,269.064
					c-0.645,1.708-1.378,3.372-2.185,4.994c-0.145,0.292-0.339,0.557-0.571,0.786l-23.899,23.699
					c-0.232,0.23-0.498,0.421-0.791,0.564c-1.628,0.793-3.298,1.512-5.012,2.143L41.906,269.064z"/>
				
					<linearGradient id="SVGID_00000140732991341653034920000016279818102912617150_" gradientUnits="userSpaceOnUse" x1="33.0196" y1="269.6651" x2="100.555" y2="269.6651" gradientTransform="matrix(-1 0 0 1 77.0968 0)">
					<stop  offset="0" style="stop-color:#FF96FF"/>
					<stop  offset="1" style="stop-color:#FFCB5D"/>
				</linearGradient>
				<path style="fill:url(#SVGID_00000140732991341653034920000016279818102912617150_);" d="M43.783,236.172
					c0.076,0.305,0.15,0.611,0.222,0.918c0.226,0.973-0.09,1.999-0.799,2.702l-63.04,62.512c-0.709,0.703-1.737,1.01-2.709,0.776
					c-0.306-0.074-0.611-0.151-0.916-0.23L43.783,236.172z"/>
				
					<linearGradient id="SVGID_00000078033888987638709730000007142501855388351383_" gradientUnits="userSpaceOnUse" x1="31.9651" y1="279.942" x2="81.2173" y2="279.942" gradientTransform="matrix(-1 0 0 1 77.0968 0)">
					<stop  offset="0" style="stop-color:#FF96FF"/>
					<stop  offset="1" style="stop-color:#FFCB5D"/>
				</linearGradient>
				<path style="fill:url(#SVGID_00000078033888987638709730000007142501855388351383_);" d="M45.132,255.522
					c-0.094,0.882-0.216,1.754-0.354,2.622c-0.097,0.607-0.39,1.165-0.827,1.597L0.108,303.217
					c-0.436,0.432-0.997,0.721-1.604,0.813c-0.868,0.131-1.742,0.246-2.624,0.332L45.132,255.522z"/>
				
					<linearGradient id="SVGID_00000043419777937042960460000010451663894505108376_" gradientUnits="userSpaceOnUse" x1="52.5105" y1="244.309" x2="131.3374" y2="244.309" gradientTransform="matrix(-1 0 0 1 77.0968 0)">
					<stop  offset="0" style="stop-color:#FF96FF"/>
					<stop  offset="1" style="stop-color:#FFCB5D"/>
				</linearGradient>
				<path style="fill:url(#SVGID_00000043419777937042960460000010451663894505108376_);" d="M22.849,205.213
					c0.588,0.43,1.167,0.873,1.737,1.325l-77.517,76.868c-0.448-0.574-0.885-1.156-1.31-1.748L22.849,205.213z"/>
				
					<linearGradient id="SVGID_00000178190402809153443450000016305439001663012506_" gradientUnits="userSpaceOnUse" x1="93.0619" y1="218.8949" x2="141.1921" y2="218.8949" gradientTransform="matrix(-1 0 0 1 77.0968 0)">
					<stop  offset="0" style="stop-color:#FF96FF"/>
					<stop  offset="1" style="stop-color:#FFCB5D"/>
				</linearGradient>
				<path style="fill:url(#SVGID_00000178190402809153443450000016305439001663012506_);" d="M-20.24,196.222
					c0.426-0.422,0.97-0.709,1.561-0.808c0.897-0.15,1.802-0.277,2.713-0.383l-48.13,47.727c0.114-0.91,0.249-1.814,0.406-2.71
					c0.104-0.591,0.395-1.132,0.821-1.554L-20.24,196.222z"/>
				
					<linearGradient id="SVGID_00000124152606062780498460000002165073817806813845_" gradientUnits="userSpaceOnUse" x1="107.0702" y1="213.6796" x2="137.5273" y2="213.6796" gradientTransform="matrix(-1 0 0 1 77.0968 0)">
					<stop  offset="0" style="stop-color:#FF96FF"/>
					<stop  offset="1" style="stop-color:#FFCB5D"/>
				</linearGradient>
				<path style="fill:url(#SVGID_00000124152606062780498460000002165073817806813845_);" d="M-36.12,201.626
					c0.208-0.206,0.445-0.383,0.703-0.521c1.759-0.939,3.577-1.779,5.443-2.526l-30.457,30.202c0.763-1.86,1.619-3.671,2.572-5.422
					c0.14-0.257,0.319-0.492,0.527-0.698L-36.12,201.626z"/>
				
					<linearGradient id="SVGID_00000119101873771529457790000015299051543523308164_" gradientUnits="userSpaceOnUse" x1="82.4197" y1="224.058" x2="141.5807" y2="224.058" gradientTransform="matrix(-1 0 0 1 77.0968 0)">
					<stop  offset="0" style="stop-color:#FF96FF"/>
					<stop  offset="1" style="stop-color:#FFCB5D"/>
				</linearGradient>
				<path style="fill:url(#SVGID_00000119101873771529457790000015299051543523308164_);" d="M-9.141,195.56
					c0.569-0.564,1.346-0.877,2.146-0.84c0.559,0.025,1.117,0.06,1.672,0.102l-59.071,58.577c-0.037-0.556-0.066-1.113-0.088-1.673
					c-0.03-0.801,0.29-1.575,0.859-2.139L-9.141,195.56z"/>
				
					<linearGradient id="SVGID_00000167367615564607345100000001234932738675561344_" gradientUnits="userSpaceOnUse" x1="65.598" y1="234.3481" x2="137.9997" y2="234.3481" gradientTransform="matrix(-1 0 0 1 77.0968 0)">
					<stop  offset="0" style="stop-color:#FF96FF"/>
					<stop  offset="1" style="stop-color:#FFCB5D"/>
				</linearGradient>
				<path style="fill:url(#SVGID_00000167367615564607345100000001234932738675561344_);" d="M7.956,199.294
					c0.815-0.808,2.038-1.08,3.101-0.647c0.148,0.06,0.294,0.12,0.442,0.182l-72.028,71.425c-0.06-0.148-0.119-0.296-0.178-0.444
					c-0.423-1.066-0.141-2.287,0.673-3.095L7.956,199.294z"/>
				
					<linearGradient id="SVGID_00000052786788124215753200000003456222500782343351_" gradientUnits="userSpaceOnUse" x1="58.6671" y1="239.5462" x2="134.6052" y2="239.5462" gradientTransform="matrix(-1 0 0 1 77.0968 0)">
					<stop  offset="0" style="stop-color:#FF96FF"/>
					<stop  offset="1" style="stop-color:#FFCB5D"/>
				</linearGradient>
				<path style="fill:url(#SVGID_00000052786788124215753200000003456222500782343351_);" d="M14.953,202.699
					c0.915-0.907,2.326-1.082,3.434-0.426l0.044,0.025l-75.547,74.914l0,0c-0.661-1.139-0.47-2.581,0.465-3.508L14.953,202.699z"/>
				
					<linearGradient id="SVGID_00000163786977520573049150000004941232614732168876_" gradientUnits="userSpaceOnUse" x1="47.0628" y1="249.4236" x2="126.6449" y2="249.4236" gradientTransform="matrix(-1 0 0 1 77.0968 0)">
					<stop  offset="0" style="stop-color:#FF96FF"/>
					<stop  offset="1" style="stop-color:#FFCB5D"/>
				</linearGradient>
				<path style="fill:url(#SVGID_00000163786977520573049150000004941232614732168876_);" d="M-49.548,287.348L28.5,209.953
					c0.521,0.5,1.033,1.007,1.534,1.526l-78.069,77.416C-48.55,288.389-49.053,287.873-49.548,287.348z"/>
				
					<linearGradient id="SVGID_00000042718482105772112110000008513142407979316876_" gradientUnits="userSpaceOnUse" x1="73.4349" y1="229.1765" x2="140.4172" y2="229.1765" gradientTransform="matrix(-1 0 0 1 77.0968 0)">
					<stop  offset="0" style="stop-color:#FF96FF"/>
					<stop  offset="1" style="stop-color:#FFCB5D"/>
				</linearGradient>
				<path style="fill:url(#SVGID_00000042718482105772112110000008513142407979316876_);" d="M0.028,196.812
					c0.7-0.695,1.713-1.004,2.674-0.784c0.321,0.073,0.641,0.15,0.96,0.228l-66.698,66.139c-0.076-0.319-0.149-0.639-0.22-0.961
					c-0.212-0.963,0.106-1.973,0.806-2.668L0.028,196.812z"/>
			</g>
		</g>
	</g>
	<g>
		<defs>
			
				<rect id="SVGID_00000001664940788941212570000016585133227283127973_" x="172.193" y="205.064" width="405.613" height="294.935"/>
		</defs>
		<clipPath id="SVGID_00000055669439332894678740000006063169896171008695_">
			<use xlink:href="#SVGID_00000001664940788941212570000016585133227283127973_"  style="overflow:visible;"/>
		</clipPath>
		<g style="clip-path:url(#SVGID_00000055669439332894678740000006063169896171008695_);">
			<g>
				<g>
					
						<linearGradient id="SVGID_00000062187389100953188650000006188554696561266839_" gradientUnits="userSpaceOnUse" x1="225.8605" y1="392.8214" x2="250.6349" y2="149.7243">
						<stop  offset="0" style="stop-color:#FF6D70"/>
						<stop  offset="1" style="stop-color:#FFE8B7"/>
					</linearGradient>
					<path style="fill:url(#SVGID_00000062187389100953188650000006188554696561266839_);" d="M255.947,317.323
						c0,0-19.742-8.129-30.194-16.258c-10.452-8.129-39.484-62.71-40.645-70.839c-1.161-8.129,9.29-6.968,20.903-1.161
						c11.613,5.807,34.839,55.742,39.484,55.742c4.645,0,46.452,24.387,46.452,24.387L255.947,317.323z"/>
					
						<linearGradient id="SVGID_00000118376548953246430450000015030630520899817884_" gradientUnits="userSpaceOnUse" x1="250.6802" y1="395.3507" x2="275.4546" y2="152.2537">
						<stop  offset="0" style="stop-color:#FF6D70"/>
						<stop  offset="1" style="stop-color:#FFE8B7"/>
					</linearGradient>
					<path style="fill:url(#SVGID_00000118376548953246430450000015030630520899817884_);" d="M281.367,313.968
						c0,0-19.742-8.129-30.193-16.258c-10.452-8.129-39.484-62.71-40.645-70.839c-1.161-8.129,9.29-6.968,20.903-1.161
						c11.613,5.806,34.839,55.742,39.484,55.742s46.452,24.387,46.452,24.387L281.367,313.968z"/>
					
						<linearGradient id="SVGID_00000109740463725779284150000008474618055719647643_" gradientUnits="userSpaceOnUse" x1="283.4906" y1="398.6945" x2="308.2649" y2="155.5975">
						<stop  offset="0" style="stop-color:#FF6D70"/>
						<stop  offset="1" style="stop-color:#FFE8B7"/>
					</linearGradient>
					<path style="fill:url(#SVGID_00000109740463725779284150000008474618055719647643_);" d="M307.587,332.456
						c0,0-18.772-10.169-28.307-19.357c-9.534-9.188-32.637-66.531-32.933-74.737c-0.296-8.206,9.974-5.947,20.909,1.054
						c10.934,7.001,28.754,59.111,33.373,59.602c4.619,0.491,43.615,29.159,43.615,29.159L307.587,332.456z"/>
					
						<linearGradient id="SVGID_00000124139743136876618900000009615984942734805423_" gradientUnits="userSpaceOnUse" x1="307.5915" y1="401.1506" x2="332.3658" y2="158.0537">
						<stop  offset="0" style="stop-color:#FF6D70"/>
						<stop  offset="1" style="stop-color:#FFE8B7"/>
					</linearGradient>
					<path style="fill:url(#SVGID_00000124139743136876618900000009615984942734805423_);" d="M326.868,335.019
						c0,0-15.133-9.097-22.669-17.041c-7.537-7.944-24.5-56.175-24.44-62.966c0.06-6.791,8.461-4.544,17.235,1.645
						c8.774,6.189,21.566,49.901,25.364,50.478c3.798,0.577,34.953,25.706,34.953,25.706L326.868,335.019z"/>
					<line style="fill:none;stroke:#3B365B;stroke-miterlimit:10;" x1="211.56" y1="233.323" x2="253.367" y2="303.387"/>
					<line style="fill:none;stroke:#3B365B;stroke-miterlimit:10;" x1="247.56" y1="244.936" x2="281.625" y2="304.935"/>
					<line style="fill:none;stroke:#3B365B;stroke-miterlimit:10;" x1="279.689" y1="256.935" x2="304.077" y2="308.419"/>
					
						<linearGradient id="SVGID_00000022539207809834055370000000179929586870722987_" gradientUnits="userSpaceOnUse" x1="187.1224" y1="385.0175" x2="366.012" y2="385.0175">
						<stop  offset="0" style="stop-color:#FF6D70"/>
						<stop  offset="1" style="stop-color:#FFE8B7"/>
					</linearGradient>
					<path style="fill:url(#SVGID_00000022539207809834055370000000179929586870722987_);" d="M270.786,358.742
						c0,0-36-24.387-53.419-33.677c-12.774-9.29-20.903-42.968-29.032-54.581c-5.806-11.613,10.452-11.613,23.226-8.129
						c12.774,3.484,25.548,32.516,29.032,34.839c3.484,2.323,72,3.484,101.032,19.742c24.387,13.936,20.903,37.161,19.742,47.613
						s-2.323,16.258-2.323,16.258l6.968,128.903H259.173L270.786,358.742z"/>
				</g>
				<path style="fill:#3B365B;" d="M270.786,358.742l19.355,6.581c0,0-13.935,6.194-20.903,3.097L270.786,358.742z"/>
				<path style="fill:none;stroke:#3B365B;stroke-miterlimit:10;" d="M320.335,370.742c0,0,18.581,5.419,35.613,2.323"/>
				<path style="fill:none;stroke:#3B365B;stroke-miterlimit:10;" d="M240.593,297.194c0,0-6.968,3.097-8.516,10.839"/>
				<path style="fill:none;stroke:#3B365B;stroke-miterlimit:10;" d="M187.173,267.258c0,0,6.71-1.806,10.064,2.581
					c3.355,4.387,5.677,11.097,5.677,11.097l-8,3.097"/>
			</g>
			<g>
				<g>
					
						<linearGradient id="SVGID_00000183929713727228761420000017945118783414484650_" gradientUnits="userSpaceOnUse" x1="297.1915" y1="392.8214" x2="321.9658" y2="149.7243" gradientTransform="matrix(-1 0 0 1 821.3309 0)">
						<stop  offset="0" style="stop-color:#FF6D70"/>
						<stop  offset="1" style="stop-color:#FFE8B7"/>
					</linearGradient>
					<path style="fill:url(#SVGID_00000183929713727228761420000017945118783414484650_);" d="M494.052,317.323
						c0,0,19.742-8.129,30.194-16.258c10.452-8.129,39.484-62.71,40.645-70.839c1.161-8.129-9.29-6.968-20.903-1.161
						c-11.613,5.807-34.839,55.742-39.484,55.742c-4.645,0-46.452,24.387-46.452,24.387L494.052,317.323z"/>
					
						<linearGradient id="SVGID_00000068658980675777311690000001553546948762093985_" gradientUnits="userSpaceOnUse" x1="322.0111" y1="395.3507" x2="346.7855" y2="152.2537" gradientTransform="matrix(-1 0 0 1 821.3309 0)">
						<stop  offset="0" style="stop-color:#FF6D70"/>
						<stop  offset="1" style="stop-color:#FFE8B7"/>
					</linearGradient>
					<path style="fill:url(#SVGID_00000068658980675777311690000001553546948762093985_);" d="M468.633,313.968
						c0,0,19.742-8.129,30.194-16.258c10.452-8.129,39.484-62.71,40.645-70.839c1.161-8.129-9.29-6.968-20.903-1.161
						c-11.613,5.806-34.839,55.742-39.484,55.742c-4.645,0-46.452,24.387-46.452,24.387L468.633,313.968z"/>
					
						<linearGradient id="SVGID_00000178892155514191347490000017971969276649249967_" gradientUnits="userSpaceOnUse" x1="354.8215" y1="398.6945" x2="379.5959" y2="155.5975" gradientTransform="matrix(-1 0 0 1 821.3309 0)">
						<stop  offset="0" style="stop-color:#FF6D70"/>
						<stop  offset="1" style="stop-color:#FFE8B7"/>
					</linearGradient>
					<path style="fill:url(#SVGID_00000178892155514191347490000017971969276649249967_);" d="M442.413,332.456
						c0,0,18.773-10.169,28.307-19.357c9.534-9.188,32.637-66.531,32.933-74.737c0.296-8.206-9.975-5.947-20.909,1.054
						c-10.934,7.001-28.754,59.111-33.373,59.602c-4.619,0.491-43.615,29.159-43.615,29.159L442.413,332.456z"/>
					
						<linearGradient id="SVGID_00000034811984716748718670000010358210372915806111_" gradientUnits="userSpaceOnUse" x1="378.9224" y1="401.1506" x2="403.6967" y2="158.0537" gradientTransform="matrix(-1 0 0 1 821.3309 0)">
						<stop  offset="0" style="stop-color:#FF6D70"/>
						<stop  offset="1" style="stop-color:#FFE8B7"/>
					</linearGradient>
					<path style="fill:url(#SVGID_00000034811984716748718670000010358210372915806111_);" d="M423.132,335.019
						c0,0,15.133-9.097,22.669-17.041c7.537-7.944,24.5-56.175,24.44-62.966c-0.059-6.791-8.461-4.544-17.235,1.645
						c-8.774,6.189-21.566,49.901-25.364,50.478s-34.953,25.706-34.953,25.706L423.132,335.019z"/>
					<line style="fill:none;stroke:#3B365B;stroke-miterlimit:10;" x1="538.44" y1="233.323" x2="496.633" y2="303.387"/>
					<line style="fill:none;stroke:#3B365B;stroke-miterlimit:10;" x1="502.44" y1="244.936" x2="468.375" y2="304.935"/>
					<line style="fill:none;stroke:#3B365B;stroke-miterlimit:10;" x1="470.311" y1="256.935" x2="445.923" y2="308.419"/>
					
						<linearGradient id="SVGID_00000152252206776593624340000011851835812399056031_" gradientUnits="userSpaceOnUse" x1="258.4533" y1="385.0175" x2="437.3429" y2="385.0175" gradientTransform="matrix(-1 0 0 1 821.3309 0)">
						<stop  offset="0" style="stop-color:#FF6D70"/>
						<stop  offset="1" style="stop-color:#FFE8B7"/>
					</linearGradient>
					<path style="fill:url(#SVGID_00000152252206776593624340000011851835812399056031_);" d="M479.214,358.742
						c0,0,36-24.387,53.419-33.677c12.774-9.29,20.903-42.968,29.032-54.581c5.806-11.613-10.452-11.613-23.226-8.129
						c-12.774,3.484-25.548,32.516-29.032,34.839c-3.484,2.323-72,3.484-101.032,19.742c-24.387,13.936-20.903,37.161-19.742,47.613
						c1.161,10.452,2.323,16.258,2.323,16.258l-6.968,128.903h106.839L479.214,358.742z"/>
				</g>
				<path style="fill:#3B365B;" d="M479.214,358.742l-19.355,6.581c0,0,13.935,6.194,20.903,3.097L479.214,358.742z"/>
				<path style="fill:none;stroke:#3B365B;stroke-miterlimit:10;" d="M429.665,370.742c0,0-18.581,5.419-35.613,2.323"/>
				<path style="fill:none;stroke:#3B365B;stroke-miterlimit:10;" d="M509.407,297.194c0,0,6.968,3.097,8.516,10.839"/>
				<path style="fill:none;stroke:#3B365B;stroke-miterlimit:10;" d="M562.827,267.258c0,0-6.71-1.806-10.064,2.581
					c-3.355,4.387-5.677,11.097-5.677,11.097l8,3.097"/>
			</g>
		</g>
	</g>
	<g>
		<g>
			<g>
				<g>
					<g>
						<path style="fill:#FF6D70;" d="M198.284,357.777c0,1.006-0.816,1.822-1.822,1.822c-1.006,0-1.822-0.816-1.822-1.822
							c0-1.006,0.816-1.822,1.822-1.822C197.468,355.955,198.284,356.77,198.284,357.777z"/>
						<path style="fill:#FF6D70;" d="M198.284,370.127c0,1.006-0.816,1.822-1.822,1.822c-1.006,0-1.822-0.816-1.822-1.822
							c0-1.006,0.816-1.822,1.822-1.822C197.468,368.305,198.284,369.121,198.284,370.127z"/>
						<path style="fill:#FF6D70;" d="M198.284,382.477c0,1.006-0.816,1.822-1.822,1.822c-1.006,0-1.822-0.816-1.822-1.822
							c0-1.006,0.816-1.822,1.822-1.822C197.468,380.655,198.284,381.471,198.284,382.477z"/>
						<path style="fill:#FF6D70;" d="M198.284,394.827c0,1.006-0.816,1.822-1.822,1.822c-1.006,0-1.822-0.816-1.822-1.822
							c0-1.006,0.816-1.822,1.822-1.822C197.468,393.005,198.284,393.821,198.284,394.827z"/>
					</g>
					<g>
						<path style="fill:#FF6D70;" d="M212.456,357.777c0,1.006-0.816,1.822-1.822,1.822c-1.006,0-1.822-0.816-1.822-1.822
							c0-1.006,0.816-1.822,1.822-1.822C211.64,355.955,212.456,356.77,212.456,357.777z"/>
						<path style="fill:#FF6D70;" d="M212.456,370.127c0,1.006-0.816,1.822-1.822,1.822c-1.006,0-1.822-0.816-1.822-1.822
							c0-1.006,0.816-1.822,1.822-1.822C211.64,368.305,212.456,369.121,212.456,370.127z"/>
						<path style="fill:#FF6D70;" d="M212.456,382.477c0,1.006-0.816,1.822-1.822,1.822c-1.006,0-1.822-0.816-1.822-1.822
							c0-1.006,0.816-1.822,1.822-1.822C211.64,380.655,212.456,381.471,212.456,382.477z"/>
						<path style="fill:#FF6D70;" d="M212.456,394.827c0,1.006-0.816,1.822-1.822,1.822c-1.006,0-1.822-0.816-1.822-1.822
							c0-1.006,0.816-1.822,1.822-1.822C211.64,393.005,212.456,393.821,212.456,394.827z"/>
					</g>
					<g>
						<path style="fill:#FF6D70;" d="M226.629,357.777c0,1.006-0.816,1.822-1.822,1.822c-1.006,0-1.822-0.816-1.822-1.822
							c0-1.006,0.816-1.822,1.822-1.822C225.813,355.955,226.629,356.77,226.629,357.777z"/>
						<path style="fill:#FF6D70;" d="M226.629,370.127c0,1.006-0.816,1.822-1.822,1.822c-1.006,0-1.822-0.816-1.822-1.822
							c0-1.006,0.816-1.822,1.822-1.822C225.813,368.305,226.629,369.121,226.629,370.127z"/>
						<path style="fill:#FF6D70;" d="M226.629,382.477c0,1.006-0.816,1.822-1.822,1.822c-1.006,0-1.822-0.816-1.822-1.822
							c0-1.006,0.816-1.822,1.822-1.822C225.813,380.655,226.629,381.471,226.629,382.477z"/>
						<path style="fill:#FF6D70;" d="M226.629,394.827c0,1.006-0.816,1.822-1.822,1.822c-1.006,0-1.822-0.816-1.822-1.822
							c0-1.006,0.816-1.822,1.822-1.822C225.813,393.005,226.629,393.821,226.629,394.827z"/>
					</g>
					<g>
						<path style="fill:#FF6D70;" d="M240.801,357.777c0,1.006-0.816,1.822-1.822,1.822c-1.006,0-1.822-0.816-1.822-1.822
							c0-1.006,0.816-1.822,1.822-1.822C239.985,355.955,240.801,356.77,240.801,357.777z"/>
						<path style="fill:#FF6D70;" d="M240.801,370.127c0,1.006-0.816,1.822-1.822,1.822c-1.006,0-1.822-0.816-1.822-1.822
							c0-1.006,0.816-1.822,1.822-1.822C239.985,368.305,240.801,369.121,240.801,370.127z"/>
						<path style="fill:#FF6D70;" d="M240.801,382.477c0,1.006-0.816,1.822-1.822,1.822c-1.006,0-1.822-0.816-1.822-1.822
							c0-1.006,0.816-1.822,1.822-1.822C239.985,380.655,240.801,381.471,240.801,382.477z"/>
						<path style="fill:#FF6D70;" d="M240.801,394.827c0,1.006-0.816,1.822-1.822,1.822c-1.006,0-1.822-0.816-1.822-1.822
							c0-1.006,0.816-1.822,1.822-1.822C239.985,393.005,240.801,393.821,240.801,394.827z"/>
					</g>
				</g>
			</g>
			<g>
				<g>
					<g>
						<path style="fill:#FF6D70;" d="M512.843,357.777c0,1.006-0.816,1.822-1.822,1.822c-1.006,0-1.822-0.816-1.822-1.822
							c0-1.006,0.816-1.822,1.822-1.822C512.028,355.955,512.843,356.77,512.843,357.777z"/>
						<path style="fill:#FF6D70;" d="M512.843,370.127c0,1.006-0.816,1.822-1.822,1.822c-1.006,0-1.822-0.816-1.822-1.822
							c0-1.006,0.816-1.822,1.822-1.822C512.028,368.305,512.843,369.121,512.843,370.127z"/>
						<path style="fill:#FF6D70;" d="M512.843,382.477c0,1.006-0.816,1.822-1.822,1.822c-1.006,0-1.822-0.816-1.822-1.822
							c0-1.006,0.816-1.822,1.822-1.822C512.028,380.655,512.843,381.471,512.843,382.477z"/>
						<path style="fill:#FF6D70;" d="M512.843,394.827c0,1.006-0.816,1.822-1.822,1.822c-1.006,0-1.822-0.816-1.822-1.822
							c0-1.006,0.816-1.822,1.822-1.822C512.028,393.005,512.843,393.821,512.843,394.827z"/>
					</g>
					<g>
						<path style="fill:#FF6D70;" d="M527.016,357.777c0,1.006-0.816,1.822-1.822,1.822c-1.006,0-1.822-0.816-1.822-1.822
							c0-1.006,0.816-1.822,1.822-1.822C526.2,355.955,527.016,356.77,527.016,357.777z"/>
						<path style="fill:#FF6D70;" d="M527.016,370.127c0,1.006-0.816,1.822-1.822,1.822c-1.006,0-1.822-0.816-1.822-1.822
							c0-1.006,0.816-1.822,1.822-1.822C526.2,368.305,527.016,369.121,527.016,370.127z"/>
						<path style="fill:#FF6D70;" d="M527.016,382.477c0,1.006-0.816,1.822-1.822,1.822c-1.006,0-1.822-0.816-1.822-1.822
							c0-1.006,0.816-1.822,1.822-1.822C526.2,380.655,527.016,381.471,527.016,382.477z"/>
						<path style="fill:#FF6D70;" d="M527.016,394.827c0,1.006-0.816,1.822-1.822,1.822c-1.006,0-1.822-0.816-1.822-1.822
							c0-1.006,0.816-1.822,1.822-1.822C526.2,393.005,527.016,393.821,527.016,394.827z"/>
					</g>
					<g>
						<path style="fill:#FF6D70;" d="M541.188,357.777c0,1.006-0.816,1.822-1.822,1.822c-1.006,0-1.822-0.816-1.822-1.822
							c0-1.006,0.816-1.822,1.822-1.822C540.372,355.955,541.188,356.77,541.188,357.777z"/>
						<path style="fill:#FF6D70;" d="M541.188,370.127c0,1.006-0.816,1.822-1.822,1.822c-1.006,0-1.822-0.816-1.822-1.822
							c0-1.006,0.816-1.822,1.822-1.822C540.372,368.305,541.188,369.121,541.188,370.127z"/>
						<path style="fill:#FF6D70;" d="M541.188,382.477c0,1.006-0.816,1.822-1.822,1.822c-1.006,0-1.822-0.816-1.822-1.822
							c0-1.006,0.816-1.822,1.822-1.822C540.372,380.655,541.188,381.471,541.188,382.477z"/>
						<path style="fill:#FF6D70;" d="M541.188,394.827c0,1.006-0.816,1.822-1.822,1.822c-1.006,0-1.822-0.816-1.822-1.822
							c0-1.006,0.816-1.822,1.822-1.822C540.372,393.005,541.188,393.821,541.188,394.827z"/>
					</g>
					<g>
						<path style="fill:#FF6D70;" d="M555.36,357.777c0,1.006-0.816,1.822-1.822,1.822c-1.006,0-1.822-0.816-1.822-1.822
							c0-1.006,0.816-1.822,1.822-1.822C554.544,355.955,555.36,356.77,555.36,357.777z"/>
						<path style="fill:#FF6D70;" d="M555.36,370.127c0,1.006-0.816,1.822-1.822,1.822c-1.006,0-1.822-0.816-1.822-1.822
							c0-1.006,0.816-1.822,1.822-1.822C554.544,368.305,555.36,369.121,555.36,370.127z"/>
						<path style="fill:#FF6D70;" d="M555.36,382.477c0,1.006-0.816,1.822-1.822,1.822c-1.006,0-1.822-0.816-1.822-1.822
							c0-1.006,0.816-1.822,1.822-1.822C554.544,380.655,555.36,381.471,555.36,382.477z"/>
						<path style="fill:#FF6D70;" d="M555.36,394.827c0,1.006-0.816,1.822-1.822,1.822c-1.006,0-1.822-0.816-1.822-1.822
							c0-1.006,0.816-1.822,1.822-1.822C554.544,393.005,555.36,393.821,555.36,394.827z"/>
					</g>
				</g>
			</g>
		</g>
		<g>
			<g>
				<path style="fill:#3B365B;" d="M226.563,464.419c0,1.965-1.593,3.558-3.558,3.558c-1.965,0-3.558-1.593-3.558-3.558
					c0-1.965,1.593-3.558,3.558-3.558C224.97,460.861,226.563,462.454,226.563,464.419z"/>
				<path style="fill:#3B365B;" d="M252.392,464.419c0,1.965-1.593,3.558-3.558,3.558c-1.965,0-3.558-1.593-3.558-3.558
					c0-1.965,1.593-3.558,3.558-3.558C250.799,460.861,252.392,462.454,252.392,464.419z"/>
				<path style="fill:#3B365B;" d="M278.221,464.419c0,1.965-1.593,3.558-3.558,3.558c-1.965,0-3.558-1.593-3.558-3.558
					c0-1.965,1.593-3.558,3.558-3.558C276.628,460.861,278.221,462.454,278.221,464.419z"/>
				<path style="fill:#3B365B;" d="M304.05,464.419c0,1.965-1.593,3.558-3.558,3.558c-1.965,0-3.558-1.593-3.558-3.558
					c0-1.965,1.593-3.558,3.558-3.558C302.457,460.861,304.05,462.454,304.05,464.419z"/>
			</g>
			<path style="fill:none;stroke:#3B365B;stroke-miterlimit:10;" d="M541.419,430.935H434.581c-4.169,0-7.548-3.379-7.548-7.548l0,0
				c0-4.169,3.38-7.548,7.548-7.548h106.839c4.169,0,7.548,3.379,7.548,7.548l0,0C548.968,427.556,545.588,430.935,541.419,430.935z
				"/>
		</g>
	</g>
	<g>
		<g>
			
				<linearGradient id="SVGID_00000172403713214187991030000010266357217991669667_" gradientUnits="userSpaceOnUse" x1="594.9866" y1="104.3113" x2="683.0134" y2="104.3113">
				<stop  offset="0" style="stop-color:#4CC3A3"/>
				<stop  offset="1" style="stop-color:#00A0B7"/>
			</linearGradient>
			<path style="fill:url(#SVGID_00000172403713214187991030000010266357217991669667_);" d="M639,60.298
				c-24.308,0-44.013,19.705-44.013,44.013c0,24.308,19.706,44.013,44.013,44.013c24.308,0,44.013-19.705,44.013-44.013
				C683.013,80.004,663.308,60.298,639,60.298z M639,133.089c-15.893,0-28.778-12.884-28.778-28.778S623.107,75.534,639,75.534
				s28.778,12.884,28.778,28.778S654.893,133.089,639,133.089z"/>
			<path style="fill:#FFCB5D;" d="M111,60.298c-24.308,0-44.013,19.705-44.013,44.013c0,24.308,19.705,44.013,44.013,44.013
				s44.013-19.705,44.013-44.013C155.013,80.004,135.308,60.298,111,60.298z M111,133.089c-15.894,0-28.778-12.884-28.778-28.778
				S95.106,75.534,111,75.534s28.778,12.884,28.778,28.778S126.893,133.089,111,133.089z"/>
		</g>
		<g>
			
				<linearGradient id="SVGID_00000080184477251456648630000011318722035043479482_" gradientUnits="userSpaceOnUse" x1="250.8985" y1="226.1018" x2="23.2856" y2="-179.5759">
				<stop  offset="0" style="stop-color:#FF96FF"/>
				<stop  offset="1" style="stop-color:#FFCB5D"/>
			</linearGradient>
			<path style="fill:url(#SVGID_00000080184477251456648630000011318722035043479482_);" d="M0,0v122.026
				c28.799,5.155,80.683,7.743,117.935-28.445c54.194-52.645,52.645-63.484,131.613-68.129C284.936,23.37,305.08,11.96,316.544,0H0z
				"/>
			
				<linearGradient id="SVGID_00000007413661430501952160000013288351809155854724_" gradientUnits="userSpaceOnUse" x1="455.3785" y1="226.1019" x2="227.7656" y2="-179.576" gradientTransform="matrix(-1 0 0 1 954.48 0)">
				<stop  offset="0" style="stop-color:#FF96FF"/>
				<stop  offset="1" style="stop-color:#FFCB5D"/>
			</linearGradient>
			<path style="fill:url(#SVGID_00000007413661430501952160000013288351809155854724_);" d="M750,0v122.026
				c-28.799,5.155-80.683,7.743-117.935-28.445c-54.194-52.645-52.645-63.484-131.613-68.129C465.064,23.37,444.92,11.96,433.455,0
				H750z"/>
		</g>
	</g>
	<g>
		<g>
			
				<linearGradient id="SVGID_00000126306327056057190340000004997124181218723972_" gradientUnits="userSpaceOnUse" x1="331.0243" y1="96.7209" x2="420.9628" y2="304.0184">
				<stop  offset="0" style="stop-color:#FF96FF"/>
				<stop  offset="1" style="stop-color:#FFCB5D"/>
			</linearGradient>
			<path style="fill:url(#SVGID_00000126306327056057190340000004997124181218723972_);" d="M373.661,108.729
				c55.279-3.767,88.22,62.781,51.744,104.5c-12.728,11.269,2.129,49.34-10.531,52.898c-20.459,3.405-40.916,6.81-61.372,10.221
				c-12.152,1.475-5.396-17.773-7.054-25.004c-36.608,8.272-31.277-1.024-31.475-32.453c-34.875,4.345,1.088-26.864,0.036-42.088
				C312.111,142.574,339.381,110.944,373.661,108.729z"/>
		</g>
		<g>
			<path style="fill:#FF5E62;" d="M379.237,147.632c1.152-1.219,2.166-2.434,3.324-3.49c2.732-2.491,5.929-4.003,9.648-4.391
				c8.31-0.868,15.602,4.644,17.557,12.627c1.335,5.452,0.089,10.422-2.689,15.133c-2.72,4.613-6.312,8.493-10.223,12.095
				c-3.783,3.483-7.845,6.618-12.089,9.517c-2.948,2.014-5.952,2.085-8.986,0.197c-6.398-3.981-12.474-8.38-17.774-13.775
				c-3.002-3.056-5.626-6.388-7.482-10.288c-3.368-7.077-1.902-15.463,3.712-20.693c2.573-2.397,5.65-3.766,9.161-4.125
				c5.746-0.588,10.432,1.56,14.385,5.586C378.285,146.541,378.752,147.096,379.237,147.632z"/>
		</g>
	</g>
	<g>
		<path style="fill:none;stroke:#FFFFFF;stroke-width:2;stroke-miterlimit:10;" d="M493.624,111.243
			c16.479,23.504,26.15,52.13,26.15,83.015c0,41.333-17.322,78.621-45.102,105.001"/>
		<path style="fill:none;stroke:#4CC3A3;stroke-width:2;stroke-miterlimit:10;" d="M475.374,89.928
			c6.745,6.491,12.862,13.629,18.251,21.315"/>
		<path style="fill:none;stroke:#FFFFFF;stroke-width:2;stroke-miterlimit:10;" d="M354.715,50.894
			c6.628-0.929,13.4-1.41,20.285-1.41c38.972,0,74.347,15.399,100.374,40.444"/>
		<path style="fill:none;stroke:#FFFFFF;stroke-width:2;stroke-miterlimit:10;" d="M230.577,204.425
			c-0.233-3.359-0.351-6.749-0.351-10.167c0-64.725,42.475-119.53,101.072-138.061"/>
		<path style="fill:none;stroke:#4CC3A3;stroke-width:2;stroke-miterlimit:10;" d="M236.013,234.915
			c-2.855-9.775-4.706-19.978-5.436-30.49"/>
		<path style="fill:none;stroke:#FFFFFF;stroke-width:2;stroke-miterlimit:10;" d="M274.531,298.496
			c-17.896-17.253-31.361-39.072-38.519-63.581"/>
		<path style="fill:none;stroke:#FFFFFF;stroke-width:2;stroke-miterlimit:10;" d="M457.247,313.417
			c-23.358,16.153-51.698,25.615-82.247,25.615c-29.265,0-56.501-8.683-79.274-23.613"/>
		<g>
			
				<linearGradient id="SVGID_00000095300276874198817740000000846851590370789782_" gradientUnits="userSpaceOnUse" x1="225.5062" y1="125.992" x2="245.2482" y2="191.0243">
				<stop  offset="0" style="stop-color:#FF96FF"/>
				<stop  offset="1" style="stop-color:#FFCB5D"/>
			</linearGradient>
			<circle style="fill:url(#SVGID_00000095300276874198817740000000846851590370789782_);" cx="234.645" cy="156.097" r="14.516"/>
			
				<linearGradient id="SVGID_00000083809704562123173900000015520761683615856828_" gradientUnits="userSpaceOnUse" x1="420.9332" y1="17.6565" x2="450.4144" y2="114.7713">
				<stop  offset="0" style="stop-color:#FF96FF"/>
				<stop  offset="1" style="stop-color:#FFCB5D"/>
			</linearGradient>
			<circle style="fill:url(#SVGID_00000083809704562123173900000015520761683615856828_);" cx="434.581" cy="62.613" r="21.677"/>
			
				<linearGradient id="SVGID_00000158720983038876721330000013910924340857970082_" gradientUnits="userSpaceOnUse" x1="513.4056" y1="176.45" x2="527.0933" y2="221.539">
				<stop  offset="0" style="stop-color:#FF96FF"/>
				<stop  offset="1" style="stop-color:#FFCB5D"/>
			</linearGradient>
			<circle style="fill:url(#SVGID_00000158720983038876721330000013910924340857970082_);" cx="519.742" cy="197.323" r="10.065"/>
			
				<linearGradient id="SVGID_00000052096929809987751660000018400829157135415973_" gradientUnits="userSpaceOnUse" x1="258.7338" y1="180.2218" x2="263.5596" y2="196.1184">
				<stop  offset="0" style="stop-color:#FF96FF"/>
				<stop  offset="1" style="stop-color:#FFCB5D"/>
			</linearGradient>
			<path style="fill:url(#SVGID_00000052096929809987751660000018400829157135415973_);" d="M264.516,187.581
				c0,1.96-1.589,3.548-3.548,3.548c-1.96,0-3.548-1.589-3.548-3.548c0-1.96,1.589-3.548,3.548-3.548
				C262.927,184.032,264.516,185.621,264.516,187.581z"/>
			
				<linearGradient id="SVGID_00000172430593128840638200000005335146200005919891_" gradientUnits="userSpaceOnUse" x1="471.8305" y1="60.3507" x2="476.6563" y2="76.2476">
				<stop  offset="0" style="stop-color:#FF96FF"/>
				<stop  offset="1" style="stop-color:#FFCB5D"/>
			</linearGradient>
			<circle style="fill:url(#SVGID_00000172430593128840638200000005335146200005919891_);" cx="474.064" cy="67.71" r="3.548"/>
		</g>
		<g>
			<g>
				
					<linearGradient id="SVGID_00000110437084394344798110000002240848101448715654_" gradientUnits="userSpaceOnUse" x1="528.521" y1="98.4023" x2="501.4232" y2="160.34" gradientTransform="matrix(0.9968 0.0795 -0.0795 0.9968 11.2106 -40.8608)">
					<stop  offset="0" style="stop-color:#4092B2"/>
					<stop  offset="1" style="stop-color:#006A7A"/>
				</linearGradient>
				<path style="fill:url(#SVGID_00000110437084394344798110000002240848101448715654_);" d="M511.017,145.687
					c0,0-8.547-29.159,9.971-40.626C520.989,105.061,534.823,126.358,511.017,145.687z"/>
				
					<linearGradient id="SVGID_00000079453242202184739880000000231734789929904044_" gradientUnits="userSpaceOnUse" x1="497.8229" y1="140.5998" x2="470.7261" y2="202.5352" gradientTransform="matrix(-0.4897 0.8719 0.8719 0.4897 588.6435 -348.2337)">
					<stop  offset="0" style="stop-color:#4CC3A3"/>
					<stop  offset="1" style="stop-color:#00A0B7"/>
				</linearGradient>
				<path style="fill:url(#SVGID_00000079453242202184739880000000231734789929904044_);" d="M516.709,164.62
					c0,0-19.444-23.351-39.287-14.368C477.423,150.252,487.391,173.609,516.709,164.62z"/>
			</g>
			<g>
				
					<linearGradient id="SVGID_00000082365532889677957970000012760148638959135399_" gradientUnits="userSpaceOnUse" x1="324.2562" y1="42.2055" x2="297.1597" y2="104.1404" gradientTransform="matrix(0.2888 0.9574 -0.9574 0.2888 275.8664 -232.6837)">
					<stop  offset="0" style="stop-color:#4092B2"/>
					<stop  offset="1" style="stop-color:#006A7A"/>
				</linearGradient>
				<path style="fill:url(#SVGID_00000082365532889677957970000012760148638959135399_);" d="M278.858,88.971
					c0,0,24.047-18.575,41.469-5.5C320.327,83.47,305.527,104.107,278.858,88.971z"/>
				
					<linearGradient id="SVGID_00000019645021306746135600000018445896063307218574_" gradientUnits="userSpaceOnUse" x1="533.0898" y1="-67.8912" x2="505.9921" y2="-5.9538" gradientTransform="matrix(-0.9903 -0.1387 -0.1387 0.9903 773.1344 192.8327)">
					<stop  offset="0" style="stop-color:#4CC3A3"/>
					<stop  offset="1" style="stop-color:#00A0B7"/>
				</linearGradient>
				<path style="fill:url(#SVGID_00000019645021306746135600000018445896063307218574_);" d="M263.296,101.163
					c0,0,14.671-26.609-0.917-41.822C262.379,59.342,244.252,77.128,263.296,101.163z"/>
			</g>
			<g>
				
					<linearGradient id="SVGID_00000154414938321065551180000009484758061265846401_" gradientUnits="userSpaceOnUse" x1="579.6535" y1="-11.3105" x2="552.5554" y2="50.628" gradientTransform="matrix(0.3532 -0.9355 0.9355 0.3532 148.0429 852.149)">
					<stop  offset="0" style="stop-color:#4CC3A3"/>
					<stop  offset="1" style="stop-color:#00A0B7"/>
				</linearGradient>
				<path style="fill:url(#SVGID_00000154414938321065551180000009484758061265846401_);" d="M381.48,337.231
					c0,0-30.386,0.113-36.259-20.862C345.221,316.369,369.522,308.994,381.48,337.231z"/>
				
					<linearGradient id="SVGID_00000079455102749688721620000006005854392196822184_" gradientUnits="userSpaceOnUse" x1="376.4799" y1="140.9339" x2="349.3834" y2="202.8688" gradientTransform="matrix(0.7016 0.7126 0.7126 -0.7016 13.4403 212.1807)">
					<stop  offset="0" style="stop-color:#4092B2"/>
					<stop  offset="1" style="stop-color:#006A7A"/>
				</linearGradient>
				<path style="fill:url(#SVGID_00000079455102749688721620000006005854392196822184_);" d="M401.248,337.021
					c0,0-27.832,12.194-24.714,33.751C376.534,370.772,401.741,367.683,401.248,337.021z"/>
			</g>
		</g>
	</g>
	<g>
		<g>
			<g>
				
					<linearGradient id="SVGID_00000018226925179252529650000009084681204921329289_" gradientUnits="userSpaceOnUse" x1="41.5081" y1="203.8744" x2="157.6373" y2="324.6488">
					<stop  offset="0" style="stop-color:#4CC3A3"/>
					<stop  offset="1" style="stop-color:#00A0B7"/>
				</linearGradient>
				<path style="fill:url(#SVGID_00000018226925179252529650000009084681204921329289_);" d="M77.018,237.483
					c0,1.764-1.43,3.195-3.195,3.195s-3.195-1.43-3.195-3.195c0-1.765,1.43-3.195,3.195-3.195S77.018,235.718,77.018,237.483z"/>
				
					<linearGradient id="SVGID_00000080189117792945747880000005060041857477707648_" gradientUnits="userSpaceOnUse" x1="53.5586" y1="192.2874" x2="169.6876" y2="313.0616">
					<stop  offset="0" style="stop-color:#4CC3A3"/>
					<stop  offset="1" style="stop-color:#00A0B7"/>
				</linearGradient>
				<path style="fill:url(#SVGID_00000080189117792945747880000005060041857477707648_);" d="M100.21,237.483
					c0,1.764-1.43,3.195-3.195,3.195c-1.765,0-3.195-1.43-3.195-3.195c0-1.765,1.43-3.195,3.195-3.195
					C98.78,234.288,100.21,235.718,100.21,237.483z"/>
				
					<linearGradient id="SVGID_00000070093597629535905310000003955632825678779812_" gradientUnits="userSpaceOnUse" x1="65.6092" y1="180.7005" x2="181.7381" y2="301.4746">
					<stop  offset="0" style="stop-color:#4CC3A3"/>
					<stop  offset="1" style="stop-color:#00A0B7"/>
				</linearGradient>
				<circle style="fill:url(#SVGID_00000070093597629535905310000003955632825678779812_);" cx="120.207" cy="237.483" r="3.195"/>
				
					<linearGradient id="SVGID_00000061447089037203456920000005869599752687628478_" gradientUnits="userSpaceOnUse" x1="77.6595" y1="169.1134" x2="193.7884" y2="289.8875">
					<stop  offset="0" style="stop-color:#4CC3A3"/>
					<stop  offset="1" style="stop-color:#00A0B7"/>
				</linearGradient>
				<circle style="fill:url(#SVGID_00000061447089037203456920000005869599752687628478_);" cx="143.399" cy="237.483" r="3.195"/>
			</g>
			<g>
				
					<linearGradient id="SVGID_00000003801033536009272470000004284296587180320658_" gradientUnits="userSpaceOnUse" x1="574.2853" y1="203.8744" x2="690.4146" y2="324.6488">
					<stop  offset="0" style="stop-color:#4CC3A3"/>
					<stop  offset="1" style="stop-color:#00A0B7"/>
				</linearGradient>
				<path style="fill:url(#SVGID_00000003801033536009272470000004284296587180320658_);" d="M609.796,237.483
					c0,1.764-1.43,3.195-3.195,3.195c-1.765,0-3.195-1.43-3.195-3.195c0-1.765,1.43-3.195,3.195-3.195
					C608.365,234.288,609.796,235.718,609.796,237.483z"/>
				
					<linearGradient id="SVGID_00000119092441173082909260000017014830463764789425_" gradientUnits="userSpaceOnUse" x1="586.3361" y1="192.2877" x2="702.4644" y2="313.0611">
					<stop  offset="0" style="stop-color:#4CC3A3"/>
					<stop  offset="1" style="stop-color:#00A0B7"/>
				</linearGradient>
				<path style="fill:url(#SVGID_00000119092441173082909260000017014830463764789425_);" d="M632.987,237.483
					c0,1.764-1.43,3.195-3.195,3.195c-1.765,0-3.195-1.43-3.195-3.195c0-1.765,1.43-3.195,3.195-3.195
					C631.557,234.288,632.987,235.718,632.987,237.483z"/>
				
					<linearGradient id="SVGID_00000060015184398006396330000004289272038802087558_" gradientUnits="userSpaceOnUse" x1="598.3861" y1="180.7003" x2="714.5156" y2="301.4749">
					<stop  offset="0" style="stop-color:#4CC3A3"/>
					<stop  offset="1" style="stop-color:#00A0B7"/>
				</linearGradient>
				<circle style="fill:url(#SVGID_00000060015184398006396330000004289272038802087558_);" cx="652.984" cy="237.483" r="3.195"/>
				
					<linearGradient id="SVGID_00000124856816919956184010000009064116464334896284_" gradientUnits="userSpaceOnUse" x1="610.437" y1="169.1137" x2="726.5654" y2="289.8872">
					<stop  offset="0" style="stop-color:#4CC3A3"/>
					<stop  offset="1" style="stop-color:#00A0B7"/>
				</linearGradient>
				<circle style="fill:url(#SVGID_00000124856816919956184010000009064116464334896284_);" cx="676.176" cy="237.483" r="3.195"/>
			</g>
		</g>
		<g>
			
				<linearGradient id="SVGID_00000122691437668507203430000001891870388894135944_" gradientUnits="userSpaceOnUse" x1="78.7889" y1="180.8032" x2="148.4663" y2="262.0935">
				<stop  offset="0" style="stop-color:#4CC3A3"/>
				<stop  offset="1" style="stop-color:#00A0B7"/>
			</linearGradient>
			<polygon style="fill:url(#SVGID_00000122691437668507203430000001891870388894135944_);" points="109.645,187.628 
				89.516,222.492 129.774,222.492 			"/>
			
				<linearGradient id="SVGID_00000114033894693931650850000009924197572155195036_" gradientUnits="userSpaceOnUse" x1="618.0059" y1="178.9708" x2="662.1349" y2="264.9064">
				<stop  offset="0" style="stop-color:#FF96FF"/>
				<stop  offset="1" style="stop-color:#FFCB5D"/>
			</linearGradient>
			<polygon style="fill:url(#SVGID_00000114033894693931650850000009924197572155195036_);" points="640.355,187.628 
				620.226,222.492 660.484,222.492 			"/>
		</g>
	</g>
</g>
</svg>
